<svg width="200" height="100" viewBox="0 0 200 100" fill="none" xmlns="http://www.w3.org/2000/svg">
<rect width="200" height="100" fill="#1EDE53" fill-opacity="0.55"/>
<path d="M72.252 61.0527C71.8184 61.0527 71.502 61 71.3027 60.8945C71.1035 60.7773 71.0039 60.6016 71.0039 60.3672V58.3105C71.0039 57.8535 71.4199 57.625 72.252 57.625H72.7793C73.6113 57.625 74.0273 57.8535 74.0273 58.3105V60.3672C74.0273 60.6016 73.9277 60.7773 73.7285 60.8945C73.5293 61 73.2129 61.0527 72.7793 61.0527H72.252ZM83.2559 61.1758C82.1074 61.1758 81.0352 61.0527 80.0391 60.8066C79.0547 60.5488 78.2637 60.2441 77.666 59.8926C77.0801 59.5293 76.7871 59.2012 76.7871 58.9082C76.7871 58.7441 76.8516 58.5273 76.9805 58.2578C77.1211 57.9883 77.2793 57.748 77.4551 57.5371C77.6309 57.3262 77.7715 57.2207 77.877 57.2207C77.9707 57.2207 78.1758 57.3145 78.4922 57.502C79.2188 57.877 79.9395 58.1875 80.6543 58.4336C81.3691 58.6797 82.2363 58.8027 83.2559 58.8027C84.0527 58.8027 84.7617 58.6504 85.3828 58.3457C86.0039 58.041 86.4844 57.6133 86.8242 57.0625C87.1758 56.5 87.3516 55.8555 87.3516 55.1289C87.3516 54.3555 87.1406 53.7168 86.7188 53.2129C86.3086 52.6973 85.8047 52.293 85.207 52C84.6211 51.6953 83.7656 51.3203 82.6406 50.875C81.4219 50.4062 80.4551 49.9727 79.7402 49.5742C79.0371 49.1641 78.4336 48.5723 77.9297 47.7988C77.4375 47.0254 77.1914 46 77.1914 44.7227C77.1914 43.6094 77.4785 42.6133 78.0527 41.7344C78.627 40.8438 79.4414 40.1523 80.4961 39.6602C81.5508 39.168 82.7637 38.9219 84.1348 38.9219C84.7559 38.9219 85.4648 39.0098 86.2617 39.1855C87.0586 39.3496 87.7383 39.5781 88.3008 39.8711C88.875 40.1641 89.1621 40.4863 89.1621 40.8379C89.1621 40.9902 89.0977 41.2012 88.9688 41.4707C88.8516 41.7285 88.7109 41.9629 88.5469 42.1738C88.3828 42.3848 88.2539 42.4902 88.1602 42.4902C88.0547 42.4902 87.8438 42.4023 87.5273 42.2266C87 41.9453 86.4785 41.7227 85.9629 41.5586C85.4473 41.3828 84.8203 41.2949 84.082 41.2949C82.875 41.2949 81.8965 41.6055 81.1465 42.2266C80.4082 42.8477 80.0391 43.7148 80.0391 44.8281C80.0391 45.4961 80.2031 46.0469 80.5312 46.4805C80.8594 46.9141 81.2754 47.2598 81.7793 47.5176C82.2832 47.7754 82.9863 48.0742 83.8887 48.4141C83.9473 48.4258 84.082 48.4727 84.293 48.5547C85.5352 49.0352 86.5488 49.5039 87.334 49.9609C88.1309 50.4062 88.8047 51.0508 89.3555 51.8945C89.918 52.7383 90.1992 53.8164 90.1992 55.1289C90.1992 56.3594 89.9121 57.4316 89.3379 58.3457C88.7754 59.2598 87.9668 59.9629 86.9121 60.4551C85.8691 60.9355 84.6504 61.1758 83.2559 61.1758ZM100.43 61.0527C99.7031 61.0527 99.2871 60.8887 99.1816 60.5605L92.0273 39.9941C91.957 39.8535 91.9219 39.7188 91.9219 39.5898C91.9219 39.4258 92.0332 39.2969 92.2559 39.2031C92.4902 39.0977 92.8301 39.0449 93.2754 39.0449H93.5566C94.2715 39.0449 94.6875 39.2148 94.8047 39.5547L100.588 56.2363L100.904 57.8711H100.992L101.344 56.2012L107.109 39.5547C107.238 39.2148 107.66 39.0449 108.375 39.0449H108.551C109.453 39.0449 109.904 39.2266 109.904 39.5898C109.904 39.707 109.869 39.8535 109.799 40.0293L102.645 60.5605C102.539 60.8887 102.123 61.0527 101.396 61.0527H100.43ZM121.998 61.1758C118.857 61.1758 116.467 60.2734 114.826 58.4688C113.186 56.6523 112.365 53.9102 112.365 50.2422C112.365 42.6953 115.734 38.9219 122.473 38.9219C123.457 38.9219 124.412 39.0273 125.338 39.2383C126.264 39.4375 127.014 39.6895 127.588 39.9941C128.162 40.2988 128.449 40.5918 128.449 40.873C128.449 41.0488 128.385 41.2832 128.256 41.5762C128.139 41.8691 127.998 42.127 127.834 42.3496C127.67 42.5723 127.523 42.6836 127.395 42.6836C127.336 42.6836 127.172 42.6074 126.902 42.4551C126.293 42.127 125.654 41.8516 124.986 41.6289C124.318 41.4062 123.504 41.2949 122.543 41.2949C119.895 41.2949 118.008 42.0273 116.883 43.4922C115.758 44.9453 115.195 47.1016 115.195 49.9609C115.195 52.6562 115.717 54.8066 116.76 56.4121C117.814 58.0059 119.631 58.8027 122.209 58.8027C122.994 58.8027 123.75 58.7676 124.477 58.6973C125.215 58.6152 125.801 58.5156 126.234 58.3984V52.0879H122.578C122.355 52.0879 122.191 52.0176 122.086 51.877C121.992 51.7246 121.945 51.4844 121.945 51.1562V50.6465C121.945 50.3184 121.992 50.084 122.086 49.9434C122.191 49.791 122.355 49.7148 122.578 49.7148H128.045C128.373 49.7148 128.613 49.791 128.766 49.9434C128.918 50.084 128.994 50.3184 128.994 50.6465V58.9258C128.994 59.7344 128.338 60.3145 127.025 60.666C125.713 61.0059 124.037 61.1758 121.998 61.1758Z" fill="white"/>
</svg>
